<svg width="32" height="32" xmlns="http://www.w3.org/2000/svg" xmlns:svg="http://www.w3.org/2000/svg">
 <g>
  <title>Layer 1</title>
  <g stroke="null" id="svg_1">
   <path stroke="null" id="svg_2" d="m25.97021,9.52357l-6.26782,6.26848l6.26782,6.26818c0.93231,0.93267 0.93231,2.44345 0,3.37612c-0.46583,0.46583 -1.07656,0.69891 -1.687,0.69891c-0.61144,0 -1.22223,-0.23274 -1.6877,-0.69891l-6.26918,-6.26889l-6.26871,6.26884c-0.46577,0.46583 -1.07656,0.69891 -1.68752,0.69891c-0.61078,0 -1.22117,-0.23274 -1.68734,-0.69891c-0.93231,-0.93225 -0.93231,-2.4431 0,-3.37612l6.26764,-6.26818l-6.268,-6.26842c-0.93231,-0.93231 -0.93231,-2.44345 0,-3.37576c0.93212,-0.9316 2.44238,-0.9316 3.37487,0l6.269,6.26848l6.26853,-6.26848c0.93267,-0.9316 2.4431,-0.9316 3.37505,0c0.93267,0.93231 0.93267,2.44345 0.00036,3.37576l0.00001,0l0.00001,0z"/>
  </g>
  <g id="svg_3"/>
  <g id="svg_4"/>
  <g id="svg_5"/>
  <g id="svg_6"/>
  <g id="svg_7"/>
  <g id="svg_8"/>
  <g id="svg_9"/>
  <g id="svg_10"/>
  <g id="svg_11"/>
  <g id="svg_12"/>
  <g id="svg_13"/>
  <g id="svg_14"/>
  <g id="svg_15"/>
  <g id="svg_16"/>
  <g id="svg_17"/>
 </g>
</svg>