<svg xmlns="http://www.w3.org/2000/svg" version="1.1" xmlns:xlink="http://www.w3.org/1999/xlink" xmlns:svgjs="http://svgjs.dev/svgjs" width="2000" height="1500" viewBox="0 0 2000 1500"><rect width="2000" height="1500" fill="#ffffff"></rect><g transform="matrix(0.75,0,0,0.75,249.090909090909,430.462930753498)"><svg viewBox="0 0 396 169" data-background-color="#ffffff" preserveAspectRatio="xMidYMid meet" height="853" width="2000" xmlns="http://www.w3.org/2000/svg" xmlns:xlink="http://www.w3.org/1999/xlink"><g id="tight-bounds" transform="matrix(1,0,0,1,0.2400000000000091,-0.08926971057626076)"><svg viewBox="0 0 395.52 169.17853942115252" height="169.17853942115252" width="395.52"><g><svg viewBox="0 0 577.9252163692306 247.19999999999996" height="169.17853942115252" width="395.52"><g transform="matrix(1,0,0,1,237.23290867692305,0)"><svg viewBox="0 0 340.6923076923076 247.19999999999996" height="247.19999999999996" width="340.6923076923076"><g id="textblocktransform"><svg viewBox="0 0 340.6923076923076 247.19999999999996" height="247.19999999999996" width="340.6923076923076" id="textblock"><g><svg viewBox="0 0 340.6923076923076 247.19999999999996" height="247.19999999999996" width="340.6923076923076"><g transform="matrix(1,0,0,1,0,0)"><svg width="340.6923076923076" viewBox="2.1499999999999986 -31.700000000000003 98.19999999999999 67.05000000000001" height="247.19999999999996" data-palette-color="#000000"><svg></svg><svg></svg><g class="wordmark-text-0" data-fill-palette-color="primary" id="text-0"><path d="M26.05-9.05c0 1.567-0.357 2.907-1.07 4.02-0.72 1.12-1.897 2.147-3.53 3.08v0c-1.1 0.667-2.383 1.167-3.85 1.5-1.467 0.333-2.95 0.5-4.45 0.5v0c-1.533 0-3.433-0.5-5.7-1.5v0c-1.633-0.8-2.923-1.75-3.87-2.85-0.953-1.1-1.43-2.3-1.43-3.6v0c0-0.9 0.2-1.56 0.6-1.98 0.4-0.413 1.05-0.62 1.95-0.62v0c0.467 0 0.95 0.19 1.45 0.57 0.5 0.387 0.8 0.763 0.9 1.13v0c0.467 1.367 1.283 2.407 2.45 3.12 1.167 0.72 2.617 1.08 4.35 1.08v0c2 0 3.677-0.367 5.03-1.1 1.347-0.733 2.02-1.717 2.02-2.95v0c0-1.2-0.733-2.267-2.2-3.2-1.467-0.933-2.967-1.583-4.5-1.95v0c-2.2-0.6-4.15-1.317-5.85-2.15v0c-1.767-0.867-3.083-1.933-3.95-3.2-0.867-1.267-1.3-2.6-1.3-4v0c0-1.3 0.45-2.627 1.35-3.98 0.9-1.347 1.967-2.32 3.2-2.92v0c0.667-0.333 1.81-0.693 3.43-1.08 1.613-0.38 2.787-0.57 3.52-0.57v0c0.967 0 2.033 0.117 3.2 0.35 1.167 0.233 2.117 0.567 2.85 1v0c1.467 0.833 2.55 1.583 3.25 2.25 0.7 0.667 1.05 1.5 1.05 2.5v0c0 0.6-0.223 1.133-0.67 1.6-0.453 0.467-1.23 0.7-2.33 0.7v0c-0.267 0-0.533-0.117-0.8-0.35-0.267-0.233-0.6-0.583-1-1.05v0c-0.533-0.7-1.05-1.167-1.55-1.4v0c-0.5-0.167-1.223-0.35-2.17-0.55-0.953-0.2-1.797-0.3-2.53-0.3v0c-0.8 0-1.633 0.167-2.5 0.5-0.867 0.333-1.593 0.807-2.18 1.42-0.58 0.62-0.87 1.33-0.87 2.13v0c0 0.667 0.31 1.24 0.93 1.72 0.613 0.487 1.353 0.88 2.22 1.18v0c1 0.4 2.083 0.75 3.25 1.05v0c1.533 0.467 2.793 0.89 3.78 1.27 0.98 0.387 1.937 0.863 2.87 1.43v0c1.633 0.967 2.817 1.957 3.55 2.97 0.733 1.02 1.1 2.43 1.1 4.23zM29.8-16.85c-0.267 0-0.507-0.11-0.72-0.33-0.22-0.213-0.33-0.47-0.33-0.77v0c0-0.767 0.333-1.483 1-2.15v0c0.2-0.1 0.6-0.267 1.2-0.5 0.6-0.233 1.133-0.35 1.6-0.35v0c1.267 0 2.3 0.34 3.1 1.02 0.8 0.687 1.2 1.663 1.2 2.93v0c0 0.367-0.067 1.15-0.2 2.35v0c-0.133 1.4-0.2 2.483-0.2 3.25v0c0 2.333 0.317 4.217 0.95 5.65v0c0.233 0.467 0.6 0.833 1.1 1.1 0.5 0.267 0.95 0.4 1.35 0.4v0c0.967 0 1.75-0.167 2.35-0.5 0.6-0.333 1.25-0.867 1.95-1.6v0c0.7-0.733 1.16-1.567 1.38-2.5 0.213-0.933 0.37-2.217 0.47-3.85v0c0.067-1.067 0.133-1.85 0.2-2.35v0c0.167-1.6 0.25-2.967 0.25-4.1v0c0-0.733 0.2-1.343 0.6-1.83 0.4-0.48 0.95-0.72 1.65-0.72v0c0.4 0 0.86 0.123 1.38 0.37 0.513 0.253 0.853 0.547 1.02 0.88v0c0.2 0.333 0.3 0.883 0.3 1.65v0c0 0.4-0.05 0.783-0.15 1.15v0c-0.233 0.833-0.35 1.833-0.35 3v0l0.05 2.6c0 2.367 0.167 4.117 0.5 5.25v0c0.167 0.533 0.4 1.073 0.7 1.62 0.3 0.553 0.583 1.013 0.85 1.38v0c0.667 0.733 1.1 1.243 1.3 1.53 0.2 0.28 0.3 0.553 0.3 0.82v0c0 0.4-0.19 0.773-0.57 1.12-0.387 0.353-0.797 0.53-1.23 0.53v0c-1.233 0-2.3-0.417-3.2-1.25-0.9-0.833-1.567-1.917-2-3.25v0c-1.133 1.3-2.183 2.35-3.15 3.15v0c-0.667 0.467-1.483 0.807-2.45 1.02-0.967 0.22-1.933 0.33-2.9 0.33v0c-1.3 0-2.617-0.533-3.95-1.6-1.333-1.067-2.233-2.3-2.7-3.7v0c-0.033-0.067-0.123-0.333-0.27-0.8-0.153-0.467-0.23-1.167-0.23-2.1v0c0-1.233 0.067-2.783 0.2-4.65v0c0.1-1.2 0.15-2.3 0.15-3.3v0c0-0.3-0.107-0.55-0.32-0.75-0.22-0.2-0.463-0.3-0.73-0.3v0c-0.2 0-0.423 0.023-0.67 0.07-0.253 0.053-0.513 0.08-0.78 0.08zM81.2-3.85c0.167 0.067 0.433 0.15 0.8 0.25 0.367 0.1 0.633 0.2 0.8 0.3 0.167 0.1 0.25 0.25 0.25 0.45v0c0.033 0.8-0.26 1.457-0.88 1.97-0.613 0.52-1.337 0.78-2.17 0.78v0c-1.3 0-2.317-0.35-3.05-1.05-0.733-0.7-1.267-1.767-1.6-3.2v0c-0.133-0.567-0.2-1.35-0.2-2.35v0c0-0.567 0.033-1.483 0.1-2.75v0c0.067-1.333 0.1-2.4 0.1-3.2v0c0-1.167-0.323-2.193-0.97-3.08-0.653-0.88-1.563-1.32-2.73-1.32v0c-0.7 0-1.433 0.207-2.2 0.62-0.767 0.42-1.3 0.93-1.6 1.53v0c-0.5 0.967-0.85 2.017-1.05 3.15v0c-0.367 2-0.55 4.083-0.55 6.25v0c0 1.033 0.017 1.833 0.05 2.4v0c0 0.133 0.01 0.39 0.03 0.77 0.013 0.387-0.023 0.737-0.11 1.05-0.08 0.32-0.22 0.613-0.42 0.88v0c-0.167 0.167-0.423 0.31-0.77 0.43-0.353 0.113-0.68 0.17-0.98 0.17v0c-0.467 0-1.05-0.2-1.75-0.6-0.7-0.4-1.1-0.85-1.2-1.35v0l-0.05-0.85c0-0.3 0.033-0.65 0.1-1.05v0c0.4-2.333 0.6-4.367 0.6-6.1v0c0-0.767-0.017-1.367-0.05-1.8v0l-0.05-2.35c0-0.8-0.2-1.577-0.6-2.33-0.4-0.747-0.867-1.12-1.4-1.12v0c-0.167 0-0.4 0.057-0.7 0.17-0.3 0.12-0.55 0.18-0.75 0.18v0c-0.333 0-0.69-0.167-1.07-0.5-0.387-0.333-0.58-0.683-0.58-1.05v0c0-0.7 0.233-1.267 0.7-1.7v0c0.5-0.4 0.993-0.717 1.48-0.95 0.48-0.233 1.037-0.35 1.67-0.35v0c0.533 0 0.967 0.05 1.3 0.15 0.333 0.1 0.783 0.317 1.35 0.65v0c0.3 0.167 0.65 0.533 1.05 1.1 0.4 0.567 0.733 1.367 1 2.4v0c0.867-1.6 1.943-2.727 3.23-3.38 1.28-0.647 2.92-0.97 4.92-0.97v0c0.767 0 1.59 0.25 2.47 0.75 0.887 0.5 1.647 1.083 2.28 1.75v0c0.6 0.733 1.1 1.64 1.5 2.72 0.4 1.087 0.6 2.063 0.6 2.93v0c0 0.5-0.033 1.317-0.1 2.45v0c-0.1 0.9-0.15 1.85-0.15 2.85v0c0 2.333 0.45 3.767 1.35 4.3z" fill="#000000" fill-rule="nonzero" stroke="none" stroke-width="1" stroke-linecap="butt" stroke-linejoin="miter" stroke-miterlimit="10" stroke-dasharray="" stroke-dashoffset="0" font-family="none" font-weight="none" font-size="none" text-anchor="none" style="mix-blend-mode: normal" data-fill-palette-color="primary" opacity="1"></path><path transform="translate(0,35.1)" d="M23.15-16.9c2.433 0.3 4.243 1.073 5.43 2.32 1.18 1.253 1.77 2.797 1.77 4.63v0c0 1.833-0.673 3.567-2.02 5.2-1.353 1.633-3.08 2.9-5.18 3.8v0c-0.933 0.367-2.157 0.633-3.67 0.8-1.52 0.167-3.08 0.25-4.68 0.25v0c-2.667 0-5.4-0.25-8.2-0.75v0c-0.5-0.1-1.023-0.35-1.57-0.75-0.553-0.4-0.83-0.983-0.83-1.75v0c-0.033-3.067-0.15-7.333-0.35-12.8v0l-0.05-2.75c-0.133-4.267-0.2-7.617-0.2-10.05v0c0-0.433 0.26-0.943 0.78-1.53 0.513-0.58 1.137-0.903 1.87-0.97v0c0.433 0 0.85-0.017 1.25-0.05v0c3.767-0.367 6.283-0.55 7.55-0.55v0c2.5 0 4.71 0.24 6.63 0.72 1.913 0.487 3.503 1.363 4.77 2.63v0c0.467 0.533 0.85 1.207 1.15 2.02 0.3 0.82 0.45 1.613 0.45 2.38v0c0.033 1.633-0.39 3.133-1.27 4.5-0.887 1.367-2.097 2.267-3.63 2.7zM15.35-27.6c-1.133 0-2.307 0.067-3.52 0.2-1.22 0.133-2.247 0.3-3.08 0.5v0l0.3 9.45 1.8-0.05c2.9-0.3 5.033-0.55 6.4-0.75v0c0.867-0.2 1.717-0.593 2.55-1.18 0.833-0.58 1.527-1.197 2.08-1.85 0.547-0.647 0.82-1.137 0.82-1.47v0c0-0.5-0.1-1.01-0.3-1.53-0.2-0.513-0.417-0.887-0.65-1.12v0c-0.9-0.867-1.817-1.45-2.75-1.75-0.933-0.3-2.15-0.45-3.65-0.45zM9.2-4.3c1.7 0.233 3.317 0.35 4.85 0.35v0c3.367 0 6.027-0.443 7.98-1.33 1.947-0.88 2.92-2.57 2.92-5.07v0c0-1-0.75-1.833-2.25-2.5-1.5-0.667-3.117-1-4.85-1v0c-1.167 0-2.65 0.133-4.45 0.4v0c-1.433 0.2-2.833 0.333-4.2 0.4v0c0.067 2 0.1 3.267 0.1 3.8v0c0 1.033-0.017 1.817-0.05 2.35v0zM34.55-10.6c0-1.267 0.233-2.543 0.7-3.83 0.467-1.28 1.083-2.453 1.85-3.52v0c0.767-1.067 1.983-1.943 3.65-2.63 1.667-0.68 3.15-1.02 4.45-1.02v0c1.333 0 2.693 0.183 4.08 0.55 1.38 0.367 2.337 0.933 2.87 1.7v0c1.233 1.733 1.85 3.433 1.85 5.1v0c0 0.9-0.19 1.667-0.57 2.3-0.387 0.633-0.93 1.317-1.63 2.05v0c-0.567 0.6-1.457 1-2.67 1.2-1.22 0.2-2.43 0.3-3.63 0.3v0c-0.767 0-1.7-0.077-2.8-0.23-1.1-0.147-2.167-0.337-3.2-0.57v0c0.067 0.667 0.233 1.317 0.5 1.95 0.267 0.633 0.583 1.117 0.95 1.45v0c0.667 0.633 1.36 1.033 2.08 1.2 0.713 0.167 1.637 0.25 2.77 0.25v0c1.2 0 2.317-0.2 3.35-0.6v0c0.833-0.3 1.517-0.45 2.05-0.45v0c0.633 0 1.117 0.19 1.45 0.57 0.333 0.387 0.5 0.88 0.5 1.48v0c0 0.833-0.483 1.517-1.45 2.05-0.967 0.533-2.073 0.923-3.32 1.17-1.253 0.253-2.263 0.38-3.03 0.38v0c-1.567 0-3.083-0.283-4.55-0.85-1.467-0.567-2.683-1.367-3.65-2.4v0c-0.8-0.933-1.433-2.06-1.9-3.38-0.467-1.313-0.7-2.72-0.7-4.22zM45.45-17.35c-0.733 0-1.467 0.14-2.2 0.42-0.733 0.287-1.333 0.68-1.8 1.18v0c-0.6 0.633-1.007 1.14-1.22 1.52-0.22 0.387-0.363 0.913-0.43 1.58v0c0.833 0.267 2.567 0.4 5.2 0.4v0c1.433 0 2.543-0.217 3.33-0.65 0.78-0.433 1.17-1 1.17-1.7v0c0-0.7-0.433-1.333-1.3-1.9-0.867-0.567-1.783-0.85-2.75-0.85zM61.2-17.1l-2.4-0.2c-0.467-0.067-0.84-0.267-1.12-0.6-0.287-0.333-0.43-0.733-0.43-1.2v0c0-0.233 0.06-0.483 0.18-0.75 0.113-0.267 0.287-0.5 0.52-0.7v0c0.433-0.433 1.6-0.65 3.5-0.65v0c0.267-1.3 0.4-2.617 0.4-3.95v0c0-0.5-0.017-0.933-0.05-1.3-0.033-0.367-0.05-0.65-0.05-0.85v0c0-0.733 0.277-1.283 0.83-1.65 0.547-0.367 1.17-0.55 1.87-0.55v0c0.867 0 1.46 0.217 1.78 0.65 0.313 0.433 0.47 1.233 0.47 2.4v0c0 1.733-0.15 3.433-0.45 5.1v0c0.533 0 1.267-0.033 2.2-0.1v0c1.267-0.067 2.183-0.1 2.75-0.1v0c0.567 0 1.06 0.14 1.48 0.42 0.413 0.287 0.62 0.68 0.62 1.18v0c0 1.3-0.583 2.067-1.75 2.3v0c-1.233 0.3-3.15 0.483-5.75 0.55v0c-0.1 1.3-0.15 2.717-0.15 4.25v0c0 2.4 0.15 4.367 0.45 5.9v0c0.2 1.067 0.543 1.84 1.03 2.32 0.48 0.487 1.203 0.73 2.17 0.73v0c0.567 0 1.15-0.15 1.75-0.45v0c0.4-0.233 0.767-0.35 1.1-0.35v0c0.467 0 0.81 0.15 1.03 0.45 0.213 0.3 0.32 0.7 0.32 1.2v0c0 0.933-0.5 1.707-1.5 2.32-1 0.62-2.283 0.93-3.85 0.93v0c-0.967 0-1.94-0.233-2.92-0.7-0.987-0.467-1.813-1.05-2.48-1.75v0c-0.1-0.1-0.283-0.483-0.55-1.15-0.267-0.667-0.5-1.383-0.7-2.15v0c-0.333-1.567-0.5-3.767-0.5-6.6v0c0-1.233 0.067-2.883 0.2-4.95zM100.35-2.4c0 0.733-0.39 1.35-1.17 1.85-0.787 0.5-1.513 0.75-2.18 0.75v0c-1.267 0-2.273-0.16-3.02-0.48-0.753-0.313-1.447-0.903-2.08-1.77v0c-0.867 0.767-2.05 1.34-3.55 1.72-1.5 0.387-2.883 0.58-4.15 0.58v0c-2.067 0-3.767-0.56-5.1-1.68-1.333-1.113-2-2.753-2-4.92v0c0-0.933 0.25-1.793 0.75-2.58 0.5-0.78 1.183-1.47 2.05-2.07v0c0.967-0.633 2.067-1.127 3.3-1.48 1.233-0.347 2.517-0.52 3.85-0.52v0c0.7 0 1.533 0.133 2.5 0.4 0.967 0.267 1.717 0.55 2.25 0.85v0-0.8c0-1.8-0.433-3.043-1.3-3.73-0.867-0.68-2.267-1.02-4.2-1.02v0c-0.567 0-1.123 0.117-1.67 0.35-0.553 0.233-1.18 0.55-1.88 0.95v0c-0.933 0.5-1.817 0.75-2.65 0.75v0c-0.3 0-0.583-0.21-0.85-0.63-0.267-0.413-0.4-0.787-0.4-1.12v0c0-0.967 0.46-1.8 1.38-2.5 0.913-0.7 2.003-1.227 3.27-1.58 1.267-0.347 2.4-0.52 3.4-0.52v0c1 0 2.15 0.19 3.45 0.57 1.3 0.387 2.367 0.913 3.2 1.58v0c1 0.867 1.777 1.873 2.33 3.02 0.547 1.153 0.82 2.413 0.82 3.78v0c0 0.433-0.033 1.083-0.1 1.95v0c-0.067 0.933-0.1 1.733-0.1 2.4v0c0 0.3-0.033 0.75-0.1 1.35v0c-0.067 0.733-0.1 1.317-0.1 1.75v0c0 0.4 0.15 0.743 0.45 1.03 0.3 0.28 0.65 0.42 1.05 0.42v0l1.4-0.05c0.367 0 0.65 0.133 0.85 0.4 0.2 0.267 0.3 0.6 0.3 1zM84.25-3.7c1.433 0 2.633-0.15 3.6-0.45 0.967-0.3 2.133-0.85 3.5-1.65v0c0.133-0.567 0.217-1.317 0.25-2.25v0c-1.833-0.867-3.35-1.3-4.55-1.3v0c-1.367 0-2.583 0.25-3.65 0.75-1.067 0.5-1.6 1.383-1.6 2.65v0c0 0.633 0.267 1.167 0.8 1.6 0.533 0.433 1.083 0.65 1.65 0.65z" fill="#000000" fill-rule="nonzero" stroke="none" stroke-width="1" stroke-linecap="butt" stroke-linejoin="miter" stroke-miterlimit="10" stroke-dasharray="" stroke-dashoffset="0" font-family="none" font-weight="none" font-size="none" text-anchor="none" style="mix-blend-mode: normal" data-fill-palette-color="secondary" opacity="1"></path></g></svg></g></svg></g></svg></g></svg></g><g transform="matrix(1,0,0,1,0,18.680850043846164)"><svg viewBox="0 0 210.5478461538461 209.83829991230763" height="209.83829991230763" width="210.5478461538461"><g><svg version="1.0" xmlns="http://www.w3.org/2000/svg" xmlns:xlink="http://www.w3.org/1999/xlink" x="0" y="0" viewBox="0 0 100 99.663" enable-background="new 0 0 100 99.663" xml:space="preserve" width="210.5478461538461" height="209.83829991230763" class="icon-icon-0" data-fill-palette-color="accent" id="icon-0"><path d="M47.8 0h4.473v16.999H47.8V0z" fill="#ffc922" data-fill-palette-color="accent"></path><path d="M47.536 82.663h4.472v17h-4.472V82.663z" fill="#ffc922" data-fill-palette-color="accent"></path><path d="M83.003 46.546H100v4.459H83.003V46.546z" fill="#ffc922" data-fill-palette-color="accent"></path><path d="M0 46.269h16.999v4.473H0V46.269z" fill="#ffc922" data-fill-palette-color="accent"></path><path d="M6.473 25.4l2.17-3.906 14.853 8.235-2.171 3.918L6.473 25.4z" fill="#ffc922" data-fill-palette-color="accent"></path><path d="M24.304 7.222l3.785-2.376 9.018 14.419-3.786 2.363L24.304 7.222z" fill="#ffc922" data-fill-palette-color="accent"></path><path d="M64.728 78.916l3.856-2.219 8.499 14.721-3.857 2.229L64.728 78.916z" fill="#ffc922" data-fill-palette-color="accent"></path><path d="M77.723 67.028l2.17-3.905 14.876 8.235-2.182 3.918L77.723 67.028z" fill="#ffc922" data-fill-palette-color="accent"></path><path d="M27.1 93.852l-3.905-2.17 8.235-14.876 3.918 2.159L27.1 93.852z" fill="#ffc922" data-fill-palette-color="accent"></path><path d="M7.342 74.962L4.99 71.177l14.407-9.019 2.363 3.787L7.342 74.962z" fill="#ffc922" data-fill-palette-color="accent"></path><path d="M79.324 35.069l-2.241-3.881 14.719-8.5 2.243 3.882L79.324 35.069z" fill="#ffc922" data-fill-palette-color="accent"></path><path d="M67.956 22.327l-3.918-2.181 8.246-14.853 3.907 2.171L67.956 22.327z" fill="#ffc922" data-fill-palette-color="accent"></path><path d="M22.436 49.777c0-15.25 12.369-27.62 27.619-27.62 15.238 0 27.597 12.37 27.597 27.62 0 15.25-12.358 27.605-27.597 27.605C34.805 77.385 22.436 65.027 22.436 49.777" fill="#ffc922" data-fill-palette-color="accent"></path></svg></g></svg></g></svg></g><defs></defs></svg><rect width="395.52" height="169.17853942115252" fill="none" stroke="none" visibility="hidden"></rect></g></svg></g></svg>